<svg width="175" height="160" viewBox="0 0 175 160" fill="none" xmlns="http://www.w3.org/2000/svg">
<path d="M113.207 51.0061V13H172.793V51.0061H113.207Z" fill="#FF9201"/>
<path d="M172.793 51.0063L147.906 31.7324C144.865 29.6414 140.838 29.6304 137.785 31.7026C129.233 37.5079 113.207 51.0063 113.207 51.0063H172.793Z" fill="#BCDCFF"/>
<path d="M138.761 31.1456H138.586L113.206 13.0078L113.207 51.0076C113.207 51.0076 129.233 37.5092 137.784 31.7039C138.099 31.491 138.428 31.3144 138.761 31.1456Z" fill="#A7D0FE"/>
<path d="M147.414 31.1456H146.892C147.237 31.3222 147.579 31.5097 147.905 31.7337L172.793 51.0077V13.0078L147.414 31.1456Z" fill="#A7D0FE"/>
<path d="M172.793 13.0054L147.906 32.2793C144.864 34.3703 140.838 34.3814 137.785 32.3091C129.233 26.5038 113.207 13.0054 113.207 13.0054H172.793Z" fill="white"/>
<g clip-path="url(#clip0_1688_5507)">
<path d="M148.862 62.7397L103.274 18.1741C97.5827 12.6086 88.4172 12.6086 82.7255 18.1741L37.1379 62.7397V134.001H148.862V62.7397Z" fill="#FF9201"/>
<rect x="53.0002" y="30" width="80" height="104" rx="4" fill="white"/>
<g clip-path="url(#clip1_1688_5507)">
<path fill-rule="evenodd" clip-rule="evenodd" d="M73.0002 65.5C77.1423 65.5 80.5002 62.1421 80.5002 58C80.5002 53.8579 77.1423 50.5 73.0002 50.5C68.858 50.5 65.5002 53.8579 65.5002 58C65.5002 62.1421 68.858 65.5 73.0002 65.5ZM73.0002 70C79.6276 70 85.0002 64.6274 85.0002 58C85.0002 51.3726 79.6276 46 73.0002 46C66.3728 46 61.0002 51.3726 61.0002 58C61.0002 64.6274 66.3728 70 73.0002 70Z" fill="#2EC5CE"/>
<rect x="89.0002" y="51" width="36" height="6" rx="0.5" fill="#2EC5CE"/>
<rect opacity="0.4" x="89.0002" y="60" width="16" height="5" rx="0.5" fill="#2EC5CE"/>
</g>
<path d="M148.862 134L102.199 97.8616C96.4965 93.9409 88.9468 93.9202 83.222 97.8057C67.1875 108.691 37.1379 134 37.1379 134H148.862Z" fill="#FFDC81"/>
<path d="M85.051 96.7597H84.7241L37.1379 63.6562V134.001C37.1379 134.001 67.1875 108.691 83.2199 97.8066C83.8096 97.4073 84.4282 97.0763 85.051 96.7597Z" fill="#FFCA00"/>
<path d="M101.276 96.7597H100.298C100.945 97.0907 101.587 97.4425 102.197 97.8625L148.862 134.001V63.6562L101.276 96.7597Z" fill="#FFB800"/>
</g>
<path d="M2.20653 147.006V109H61.7927V147.006H2.20653Z" fill="#FF9201"/>
<path d="M61.7932 147.006L36.906 127.732C33.8649 125.641 29.8384 125.63 26.7852 127.703C18.2335 133.508 2.20697 147.006 2.20697 147.006H61.7932Z" fill="#BCDCFF"/>
<path d="M27.7606 127.146H27.5863L2.20599 109.008L2.20697 147.008C2.20697 147.008 18.2335 133.509 26.7841 127.704C27.0986 127.491 27.4285 127.314 27.7606 127.146Z" fill="#A7D0FE"/>
<path d="M36.4139 127.146H35.8919C36.2373 127.322 36.5794 127.51 36.9049 127.734L61.7932 147.008V109.008L36.4139 127.146Z" fill="#A7D0FE"/>
<path d="M61.7927 109.005L36.9056 128.279C33.8645 130.37 29.838 130.381 26.7847 128.309C18.233 122.504 2.20653 109.005 2.20653 109.005H61.7927Z" fill="white"/>
<circle cx="145" cy="122" r="24" fill="white"/>
<g opacity="0.4">
<path d="M151 114.705C151 118.251 148.122 121.126 144.571 121.126C141.021 121.126 138.143 118.251 138.143 114.705C138.143 111.16 141.021 108.285 144.571 108.285C148.122 108.285 151 111.16 151 114.705Z" fill="#2EC5CE"/>
<path d="M157 135.678C157 135.678 148.913 135.758 143.714 135.678C139.517 135.614 133 135.678 133 135.678C133 135.678 134.714 122.838 145 122.838C155.286 122.838 157 135.678 157 135.678Z" fill="#2EC5CE"/>
</g>
<circle cx="163" cy="104" r="10" fill="#2EC5CE"/>
<path fill-rule="evenodd" clip-rule="evenodd" d="M163 99.332C163.322 99.332 163.583 99.5932 163.583 99.9154V103.415H167.083C167.406 103.415 167.667 103.677 167.667 103.999C167.667 104.321 167.406 104.582 167.083 104.582H163.583V108.082C163.583 108.404 163.322 108.665 163 108.665C162.678 108.665 162.417 108.404 162.417 108.082V104.582H158.917C158.595 104.582 158.333 104.321 158.333 103.999C158.333 103.677 158.595 103.415 158.917 103.415H162.417V99.9154C162.417 99.5932 162.678 99.332 163 99.332Z" fill="white"/>
<defs>
<clipPath id="clip0_1688_5507">
<rect width="120" height="120" fill="white" transform="translate(33 14)"/>
</clipPath>
<clipPath id="clip1_1688_5507">
<rect width="64" height="24" fill="white" transform="translate(61.0002 46)"/>
</clipPath>
</defs>
</svg>
