<svg width="152" height="103" viewBox="0 0 152 103" fill="none" xmlns="http://www.w3.org/2000/svg">
<path d="M141.024 39.9175C142.691 49.1138 139.549 58.2461 134.131 65.6621C127.655 74.5318 118.249 81.0896 108.324 85.5981C96.4905 90.9266 83.6491 93.6543 70.6687 93.5969C59.2816 93.5392 47.5868 91.3298 37.5398 85.8415C29.3522 81.3586 22.1519 74.4678 19.4141 65.3483C16.7341 56.5042 18.773 47.2054 23.5368 39.4564C29.1662 30.3049 38.0014 23.3309 47.4458 18.4253C58.8828 12.5775 71.4399 9.24101 84.2742 8.63981C95.9305 8.04423 107.997 9.68368 118.692 14.5572C127.296 18.4893 135.298 24.8038 139.132 33.6671C139.992 35.6697 140.627 37.7618 141.024 39.9047C141.165 40.6284 143.024 40.1673 142.883 39.4052C141.1 29.8631 134.605 22.1845 126.572 17.0612C116.845 10.8556 105.131 8.04423 93.6993 7.45505C80.3829 6.80597 67.0803 8.98882 54.6717 13.8592C43.9578 18.1307 33.6608 24.522 26.1463 33.3853C20.0104 40.6156 15.7467 49.7158 16.3878 59.3669C17.029 69.0179 22.5174 77.2215 30.0254 82.9148C39.0017 89.7224 50.2669 93.1038 61.3398 94.2949C74.5631 95.6362 87.9205 94.1249 100.508 89.8633C111.754 86.0912 122.545 80.1546 130.893 71.6435C137.638 64.7591 142.928 55.8254 143.338 46.0271C143.428 43.8204 143.275 41.6107 142.883 39.4372C142.755 38.6879 140.889 39.149 141.024 39.9175Z" fill="#4A3AFF"/>
<path d="M149.109 51.3809C149.109 62.3704 143.53 72.2968 135.644 79.6743C126.091 88.6401 113.71 94.1861 101.092 97.2472C86.341 100.775 71.0084 101.135 56.1079 98.3039C42.9961 95.8255 30.0318 90.7663 19.5937 82.3448C11.1303 75.4668 4.37244 66.0015 3.09012 54.948C1.84626 44.1955 6.24464 33.8784 13.3872 25.9886C21.9147 16.5553 33.7441 10.4138 45.8044 6.77621C60.3568 2.48434 75.6618 1.36183 90.6858 3.4845C104.15 5.34169 117.557 9.77334 128.758 17.5736C137.85 23.9393 145.678 32.8794 148.237 43.9201C148.806 46.3665 149.099 48.8692 149.109 51.3809C149.109 52.3864 151 52.1494 151 51.2592C150.968 39.8983 145.23 29.7286 137.112 22.0821C127.38 12.9178 114.672 7.2245 101.81 4.06087C86.661 0.403142 70.9046 0.0188643 55.595 2.93374C42.1305 5.49539 28.7943 10.7083 18.119 19.4115C9.46328 26.4753 2.52589 36.1839 1.21792 47.4936C-0.0644053 58.5663 4.42374 69.2676 11.7522 77.3688C20.5426 87.0839 32.6606 93.4432 45.0927 97.2216C59.9578 101.611 75.5923 102.766 90.9423 100.609C104.804 98.6882 118.576 94.1412 130.105 86.0848C139.465 79.5462 147.474 70.3051 150.109 58.9698C150.692 56.4495 150.989 53.8716 150.994 51.2849C150.994 50.2474 149.109 50.4907 149.109 51.3809Z" fill="#4A3AFF"/>
<path d="M149.109 51.3809C149.109 62.3704 143.53 72.2968 135.644 79.6743C126.091 88.6401 113.71 94.1861 101.092 97.2472C86.3411 100.775 71.0084 101.135 56.1079 98.3039C42.9961 95.8255 30.0318 90.7663 19.5937 82.3448C11.1303 75.4668 4.37244 66.0015 3.09012 54.948C1.84626 44.1955 6.24464 33.8784 13.3872 25.9886C21.9147 16.5553 33.7441 10.4138 45.8044 6.77621C60.3568 2.48434 75.6618 1.36183 90.6858 3.4845C104.15 5.34169 117.557 9.77334 128.758 17.5736C137.85 23.9393 145.678 32.8794 148.237 43.9201C148.806 46.3665 149.099 48.8692 149.109 51.3809ZM149.109 51.3809C149.109 52.3864 151 52.1494 151 51.2592C150.968 39.8983 145.23 29.7286 137.112 22.0821C127.38 12.9178 114.672 7.2245 101.81 4.06087C86.661 0.403142 70.9046 0.0188643 55.595 2.93374C42.1305 5.49539 28.7943 10.7083 18.119 19.4115C9.46328 26.4753 2.52589 36.1839 1.21792 47.4936C-0.0644053 58.5663 4.42374 69.2676 11.7522 77.3688C20.5426 87.0839 32.6606 93.4432 45.0927 97.2216C59.9578 101.611 75.5923 102.766 90.9423 100.609C104.804 98.6882 118.576 94.1412 130.105 86.0848C139.465 79.5462 147.474 70.3051 150.109 58.9698C150.692 56.4495 150.989 53.8716 150.994 51.2848C150.994 50.2474 149.109 50.4907 149.109 51.3809ZM141.024 39.9175C142.691 49.1138 139.549 58.2461 134.131 65.6621C127.655 74.5318 118.249 81.0896 108.324 85.5981C96.4905 90.9266 83.6491 93.6543 70.6687 93.5969C59.2816 93.5392 47.5868 91.3298 37.5398 85.8415C29.3522 81.3586 22.1519 74.4678 19.4141 65.3483C16.7341 56.5042 18.773 47.2054 23.5368 39.4564C29.1662 30.3049 38.0014 23.3309 47.4458 18.4253C58.8828 12.5775 71.4399 9.24101 84.2742 8.63981C95.9305 8.04423 107.997 9.68368 118.692 14.5572C127.296 18.4893 135.298 24.8038 139.132 33.6671C139.992 35.6697 140.627 37.7618 141.024 39.9047C141.165 40.6284 143.024 40.1673 142.883 39.4052C141.1 29.8631 134.605 22.1845 126.572 17.0612C116.845 10.8556 105.131 8.04423 93.6993 7.45505C80.3829 6.80597 67.0803 8.98882 54.6717 13.8592C43.9578 18.1307 33.6608 24.522 26.1463 33.3853C20.0104 40.6156 15.7467 49.7158 16.3878 59.3669C17.029 69.0179 22.5174 77.2215 30.0254 82.9148C39.0017 89.7224 50.2669 93.1038 61.3398 94.2949C74.5631 95.6362 87.9205 94.1249 100.508 89.8633C111.754 86.0912 122.545 80.1546 130.893 71.6435C137.638 64.7591 142.928 55.8254 143.338 46.0271C143.428 43.8204 143.275 41.6107 142.883 39.4372C142.755 38.6879 140.889 39.149 141.024 39.9175Z" stroke="#D63F2A" stroke-width="2"/>
</svg>
