<svg width="24" height="24" viewBox="0 0 24 24" fill="none" xmlns="http://www.w3.org/2000/svg">
<path d="M12 21.6C14.5461 21.6 16.9879 20.5886 18.7882 18.7882C20.5886 16.9879 21.6 14.5461 21.6 12C21.6 9.45392 20.5886 7.01212 18.7882 5.21178C16.9879 3.41143 14.5461 2.4 12 2.4C9.45392 2.4 7.01212 3.41143 5.21178 5.21178C3.41143 7.01212 2.4 9.45392 2.4 12C2.4 14.5461 3.41143 16.9879 5.21178 18.7882C7.01212 20.5886 9.45392 21.6 12 21.6ZM12 24C5.3724 24 0 18.6276 0 12C0 5.3724 5.3724 0 12 0C18.6276 0 24 5.3724 24 12C24 18.6276 18.6276 24 12 24Z" fill="#FCFCFC"/>
<path d="M18 8.33563C17.5584 8.52763 17.0844 8.65963 16.5864 8.71723C17.0952 8.41723 17.484 7.94203 17.6688 7.37683C17.184 7.65939 16.6549 7.85818 16.104 7.96483C15.8723 7.72192 15.5935 7.52876 15.2846 7.39713C14.9758 7.26551 14.6433 7.19817 14.3076 7.19923C12.948 7.19923 11.8464 8.28523 11.8464 9.62323C11.8464 9.81283 11.868 9.99763 11.91 10.1752C10.9348 10.1289 9.97994 9.87984 9.10638 9.44389C8.23281 9.00793 7.45971 8.39467 6.8364 7.64323C6.61748 8.01175 6.50221 8.43259 6.5028 8.86123C6.5028 9.70123 6.9384 10.4452 7.5984 10.8784C7.20773 10.8662 6.82543 10.7622 6.4824 10.5748V10.6048C6.48611 11.1682 6.68496 11.7128 7.0451 12.1461C7.40524 12.5793 7.9044 12.8743 8.4576 12.9808C8.09443 13.0769 7.71443 13.0908 7.3452 13.0216C7.50615 13.5063 7.81401 13.9288 8.22603 14.2305C8.63805 14.5322 9.13378 14.6981 9.6444 14.7052C8.76836 15.3803 7.69277 15.745 6.5868 15.742C6.3888 15.742 6.1932 15.73 6 15.7084C7.12857 16.4228 8.43716 16.8011 9.7728 16.7992C14.3016 16.7992 16.7772 13.1056 16.7772 9.90163L16.7688 9.58723C17.2516 9.24797 17.6687 8.82389 18 8.33563Z" fill="#FCFCFC"/>
</svg>
