<svg width="17" height="17" viewBox="0 0 17 17" fill="none" xmlns="http://www.w3.org/2000/svg">
<path d="M14.7917 0.659027C12.5841 2.71259 10.7164 4.66745 9.0065 7.21795C8.25241 8.34289 7.4138 9.66693 6.86563 10.917C6.55269 11.5799 5.98856 12.6157 5.79624 13.6115C4.74438 12.5597 3.61455 11.3659 2.45856 10.4308C1.6346 9.76452 -0.738619 11.1229 0.227416 11.9041C1.95879 13.3038 3.39869 15.0472 5.08271 16.5093C5.78708 17.1202 7.34812 15.7936 7.71497 15.237C8.91911 13.4034 9.08369 11.162 9.96128 9.16184C11.3012 6.10286 13.6776 3.59004 16.0239 1.40795C17.5784 -0.150363 15.9728 -0.437783 14.7941 0.659027" fill="#37B34A"/>
</svg>
